:SAMPLES-PER-SECOND 24
:FULLY-SPECIFIED
:DEGREES
595
root  8.95542 39.2061 28.9757 4.25647 -52.3326 2.36877
RightUpLeg  -5.58341 0.822936 -16.5428
RightLeg  16.216 -10.7637 -4.0453
RightFoot  -6.71821 -0.600705 13.6893
RightToes  -2.08645e-008 3.77894e-005 6.81332e-007
Spine  2.16767 4.44233 0.311187
Spine1  5.11699 5.79461 -5.75914
HEad  -28.2552 21.6689 0.145717
LeftShoulder1  5.58912 -10.915 -32.7694
LeftArm  -22.9782 54.5863 -44.263
LeftForeArm  150.646 -76.3566 -136.833
LeftHand  -0.307852 4.084 27.0826
RightShoulder  4.13564 6.69237 34.6658
RightArm  -0.965334 -45.8258 26.1393
RightForeArm  153.838 76.5255 136.943
RightHand  -1.45297 7.23059 -13.6321
LeftUpLeg  -17.9456 0.237452 5.19021
LeftLeg  12.8581 7.83385 2.80679
LeftFoot  -5.03615 0.890971 -15.5529
LeftToes  1.24767e-006 1.47042e-008 1.32732e-009
596
root  8.98812 39.3023 29.1334 5.35144 -53.4332 1.16241
RightUpLeg  -7.09688 0.439718 -16.4092
RightLeg  17.9235 -9.02853 -3.45811
RightFoot  -5.5877 -0.766267 14.4157
RightToes  -2.08645e-008 3.77894e-005 6.81332e-007
Spine  2.47848 4.27111 0.442688
Spine1  5.20777 5.62445 -5.73637
HEad  -28.7602 21.7943 1.42559
LeftShoulder1  5.56596 -10.8937 -32.6677
LeftArm  -26.3048 56.4649 -49.408
LeftForeArm  145.892 -76.7416 -134.488
LeftHand  -0.287281 4.15768 26.7698
RightShoulder  4.31639 6.89166 35.6097
RightArm  -4.27942 -51.6603 29.1471
RightForeArm  149.722 77.3374 133.153
RightHand  -1.24377 7.85794 -11.2067
LeftUpLeg  -17.6012 0.599569 5.73782
LeftLeg  12.5222 8.44277 3.01421
LeftFoot  -4.69753 0.887672 -14.746
LeftToes  1.24767e-006 1.47042e-008 1.32732e-009
597
root  9.02124 39.3807 29.2012 6.04639 -54.6593 -0.0678711
RightUpLeg  -8.43047 -0.567799 -16.1926
RightLeg  19.8016 -6.21614 -2.68469
RightFoot  -4.5315 -0.949093 15.3358
RightToes  -2.08645e-008 3.77894e-005 6.81332e-007
Spine  3.12663 4.09608 0.617509
Spine1  5.17401 5.35088 -5.29748
HEad  -28.6339 22.2604 2.18806
LeftShoulder1  5.87175 -11.2802 -33.7191
LeftArm  -22.2678 54.6334 -46.2829
LeftForeArm  145.606 -76.7761 -134.299
LeftHand  -0.319459 3.99937 26.3627
RightShoulder  4.44285 7.0512 36.1702
RightArm  -4.95006 -52.7996 30.6866
RightForeArm  147.14 77.4842 131.963
RightHand  -1.21593 7.59279 -11.1781
LeftUpLeg  -16.8364 1.31629 6.39458
LeftLeg  12.1818 8.87431 3.07944
LeftFoot  -4.28984 0.909071 -14.2792
LeftToes  1.24767e-006 1.47042e-008 1.32732e-009
598
root  9.03481 39.4121 29.1753 6.58826 -55.6453 -1.15155
RightUpLeg  -9.81311 -1.79964 -15.9849
RightLeg  22.1102 -3.16846 -1.62922
RightFoot  -3.88346 -1.02623 15.2539
RightToes  -2.08645e-008 3.77894e-005 6.81332e-007
Spine  3.72291 3.8018 0.326433
Spine1  4.82141 4.74326 -4.02933
HEad  -28.2663 23.1073 2.33013
LeftShoulder1  6.43006 -11.9397 -35.6074
LeftArm  -13.6388 49.2389 -37.5328
LeftForeArm  146.125 -76.9796 -133.679
LeftHand  -0.402105 3.5683 25.3413
RightShoulder  4.38336 7.01855 35.7441
RightArm  -2.99536 -49.8054 31.1696
RightForeArm  147.119 77.38 132.37
RightHand  -1.18381 7.33608 -11.1056
LeftUpLeg  -16.2991 1.96802 7.10053
LeftLeg  12.2135 9.05428 3.11282
LeftFoot  -4.07027 0.924475 -14.1103
LeftToes  1.24767e-006 1.47042e-008 1.32732e-009
599
root  8.97001 39.3736 29.0299 6.53857 -56.3855 -1.43384
RightUpLeg  -10.6103 -2.10238 -15.8911
RightLeg  23.4724 -1.25319 -0.817424
RightFoot  -4.32394 -0.846529 13.2479
RightToes  -2.08645e-008 3.77894e-005 6.81332e-007
Spine  3.89312 3.54841 -0.633658
Spine1  4.37812 4.11733 -2.55433
HEad  -27.3849 23.9082 2.53339
LeftShoulder1  6.95848 -12.5506 -37.269
LeftArm  -4.63386 39.8401 -28.0496
LeftForeArm  142.808 -77.7572 -129.753
LeftHand  -0.493503 3.0785 24.5356
RightShoulder  4.33964 6.98118 35.4808
RightArm  -0.796639 -43.3115 31.1807
RightForeArm  146.194 77.8645 130.137
RightHand  -1.1442 7.54794 -10.5884
LeftUpLeg  -16.0661 2.42181 7.5585
LeftLeg  12.5959 9.12887 3.17031
LeftFoot  -4.05868 0.916252 -13.9617
LeftToes  1.24767e-006 1.47042e-008 1.32732e-009
600
root  8.7868 39.2934 28.7574 5.45471 -57.0446 -0.667969
RightUpLeg  -10.1069 -0.844168 -15.9032
RightLeg  22.4178 -1.3634 -0.832145
RightFoot  -5.84121 -0.580219 11.2166
RightToes  -2.08645e-008 3.77894e-005 6.81332e-007
Spine  3.49205 3.58212 -2.38274
Spine1  4.34321 3.74703 -0.804841
HEad  -25.8598 24.5482 2.63764
LeftShoulder1  7.14264 -12.8041 -37.7075
LeftArm  1.64537 27.7497 -21.6965
LeftForeArm  135.88 -78.8573 -122.289
LeftHand  -0.549759 2.80474 24.4565
RightShoulder  4.36049 7.00373 35.5889
RightArm  1.02637 -34.7452 31.0877
RightForeArm  144.808 78.754 125.527
RightHand  -0.998571 8.10196 -8.92651
LeftUpLeg  -15.5373 2.79099 7.70354
LeftLeg  12.8073 9.27749 3.19972
LeftFoot  -3.99526 0.938635 -14.1911
LeftToes  1.24767e-006 1.47042e-008 1.32732e-009
601
root  8.5078 39.1778 28.3601 4.01953 -57.4625 0.447449
RightUpLeg  -8.95871 0.719814 -15.4529
RightLeg  20.4042 -3.73658 -1.74417
RightFoot  -8.01808 -0.352656 10.2878
RightToes  -2.08645e-008 3.77894e-005 6.81332e-007
Spine  2.90339 3.74221 -4.50148
Spine1  4.29502 3.42949 1.39758
HEad  -24.064 25.2758 2.10909
LeftShoulder1  6.92759 -12.6739 -36.7615
LeftArm  4.66774 15.8137 -19.3984
LeftForeArm  128.014 -79.6919 -113.974
LeftHand  -0.585838 2.65311 24.6302
RightShoulder  4.25738 6.93663 34.8789
RightArm  2.65646 -26.1 31.8069
RightForeArm  143.321 79.5437 120.487
RightHand  -0.962855 8.37596 -8.46701
LeftUpLeg  -14.9956 2.97529 7.90903
LeftLeg  13.0783 9.30514 3.27069
LeftFoot  -3.94084 0.979539 -14.7169
LeftToes  1.24767e-006 1.47042e-008 1.32732e-009
602
root  8.18052 39.0355 27.8596 3.05615 -57.6446 1.25739
RightUpLeg  -7.95161 1.55571 -14.242
RightLeg  19.1708 -7.60375 -3.13576
RightFoot  -10.5678 -0.131503 8.80938
RightToes  -2.08645e-008 3.77894e-005 6.81332e-007
Spine  2.66199 3.85423 -5.65543
Spine1  3.56991 3.2393 2.90166
HEad  -22.6402 25.9061 1.06063
LeftShoulder1  6.47229 -12.2891 -34.9634
LeftArm  5.19758 5.575 -19.9002
LeftForeArm  123.867 -79.9634 -109.989
LeftHand  -0.599995 2.53345 24.1781
RightShoulder  4.0648 6.81584 33.5022
RightArm  3.78351 -19.0325 33.6376
RightForeArm  141.347 79.9333 117.142
RightHand  -1.01438 8.53925 -8.79985
LeftUpLeg  -14.8895 2.96884 8.4427
LeftLeg  13.5502 9.28923 3.42275
LeftFoot  -3.94911 1.01317 -15.2453
LeftToes  1.24767e-006 1.47042e-008 1.32732e-009
603
root  7.83102 38.9034 27.2814 2.54565 -57.7888 1.5769
RightUpLeg  -7.24877 1.99341 -12.7878
RightLeg  18.8448 -10.5139 -4.17637
RightFoot  -12.8047 0.00517239 7.11881
RightToes  -2.08645e-008 3.77894e-005 6.81332e-007
Spine  2.91363 3.93819 -5.06015
Spine1  2.65948 3.33414 2.9652
HEad  -22.2356 26.3021 -0.599776
LeftShoulder1  6.05772 -11.8762 -33.3892
LeftArm  3.60981 -2.94888 -21.4258
LeftForeArm  123.596 -79.9515 -109.978
LeftHand  -0.596122 2.50147 23.7604
RightShoulder  3.94715 6.75717 32.582
RightArm  4.59962 -13.4592 35.7747
RightForeArm  138.523 79.9423 116.046
RightHand  -1.01717 7.99431 -9.15844
LeftUpLeg  -14.7812 2.89086 9.38085
LeftLeg  13.8184 9.47063 3.58594
LeftFoot  -3.68997 1.10023 -16.0342
LeftToes  1.24767e-006 1.47042e-008 1.32732e-009
604
root  7.48547 38.7817 26.6289 2.61694 -58.0097 1.0025
RightUpLeg  -7.64324 1.60733 -11.3081
RightLeg  20.4209 -10.1449 -4.35288
RightFoot  -14.3007 0.0793875 6.783
RightToes  -2.08645e-008 3.77894e-005 6.81332e-007
Spine  3.7161 3.92441 -3.08317
Spine1  2.23523 3.46567 2.26208
HEad  -23.2208 26.8304 -3.5176
LeftShoulder1  5.96129 -11.7575 -33.0646
LeftArm  0.267929 -8.78264 -22.6
LeftForeArm  127.086 -79.7611 -113.08
LeftHand  -0.614311 2.39574 23.6311
RightShoulder  3.88119 6.7066 32.1245
RightArm  5.49003 -8.39083 37.8457
RightForeArm  133.956 80.0038 113.815
RightHand  -1.14435 7.69607 -10.4696
LeftUpLeg  -14.4908 2.72298 10.9403
LeftLeg  14.0346 9.51972 3.74348
LeftFoot  -3.19396 1.20271 -16.5258
LeftToes  1.24767e-006 1.47042e-008 1.32732e-009
605
root  7.13952 38.6406 25.8964 3.06213 -58.3221 -0.139587
RightUpLeg  -9.11288 0.0737779 -9.59887
RightLeg  23.8554 -8.0323 -4.07757
RightFoot  -15.4964 0.128935 6.43797
RightToes  -2.08645e-008 3.77894e-005 6.81332e-007
Spine  5.16644 3.74934 -0.810895
Spine1  2.09712 3.45606 1.44905
HEad  -25.3227 27.551 -7.55743
LeftShoulder1  6.1126 -11.915 -33.6422
LeftArm  -3.65224 -10.8652 -23.4889
LeftForeArm  135.533 -79.1081 -120.701
LeftHand  -0.606946 2.35559 23.0389
RightShoulder  3.83005 6.65932 31.7963
RightArm  6.36426 -4.13631 39.9069
RightForeArm  129.231 80.2512 109.682
RightHand  -1.26408 7.78701 -11.4449
LeftUpLeg  -14.2014 2.68215 12.8912
LeftLeg  14.3714 9.29034 3.87988
LeftFoot  -2.94731 1.21885 -16.279
LeftToes  1.24767e-006 1.47042e-008 1.32732e-009
606
root  6.74263 38.5376 25.1278 3.09155 -58.3891 -0.754395
RightUpLeg  -10.001 -1.49606 -7.89447
RightLeg  26.4623 -6.95746 -3.97488
RightFoot  -16.7306 0.120248 4.96244
RightToes  -2.08645e-008 3.77894e-005 6.81332e-007
Spine  6.76662 3.42616 0.80902
Spine1  1.98249 3.28467 0.916295
HEad  -27.6615 28.1218 -11.4523
LeftShoulder1  6.30855 -12.1103 -34.3934
LeftArm  -6.29081 -9.83583 -24.3885
LeftForeArm  144.537 -78.0632 -128.853
LeftHand  -0.537667 2.66933 22.7413
RightShoulder  3.86494 6.69748 31.9985
RightArm  7.52272 -1.62647 41.3456
RightForeArm  126.196 80.4373 106.414
RightHand  -1.31954 7.95581 -11.7858
LeftUpLeg  -13.5055 3.10184 14.4503
LeftLeg  13.7906 8.76659 3.88577
LeftFoot  -2.93664 1.20579 -16.0843
LeftToes  1.24767e-006 1.47042e-008 1.32732e-009
607
root  6.26282 38.5455 24.412 3.02356 -57.8824 -0.752014
RightUpLeg  -10.0931 -2.39059 -6.44144
RightLeg  27.2122 -6.94249 -4.08732
RightFoot  -17.6182 0.0845862 3.71169
RightToes  -2.08645e-008 3.77894e-005 6.81332e-007
Spine  7.41034 2.995 1.68537
Spine1  2.13859 2.92554 0.840531
HEad  -29.3656 28.5568 -14.2811
LeftShoulder1  6.6023 -12.3934 -35.5011
LeftArm  -6.65862 -6.28412 -24.7631
LeftForeArm  149.009 -77.6207 -131.893
LeftHand  -0.535275 2.72156 23.0747
RightShoulder  3.97386 6.78006 32.756
RightArm  9.09642 -1.25835 41.4519
RightForeArm  124.358 80.4787 105.038
RightHand  -1.30945 7.63937 -11.9675
LeftUpLeg  -12.3928 3.79856 15.2917
LeftLeg  11.5349 7.01295 3.7571
LeftFoot  -3.5627 1.06414 -15.2459
LeftToes  1.24767e-006 1.47042e-008 1.32732e-009
608
root  5.72354 38.6403 23.833 3.65967 -57.0942 -0.595825
RightUpLeg  -10.472 -2.74877 -5.13306
RightLeg  27.1175 -7.49002 -4.37254
RightFoot  -17.803 0.0483427 2.99201
RightToes  -2.08645e-008 3.77894e-005 6.81332e-007
Spine  6.54977 2.62409 2.10285
Spine1  2.73278 2.56851 0.738847
HEad  -30.1736 29.0778 -15.9859
LeftShoulder1  6.99143 -12.7775 -36.8753
LeftArm  -5.5763 -0.0192553 -24.9628
LeftForeArm  148.44 -78.3149 -128.703
LeftHand  -0.65329 1.99746 22.2387
RightShoulder  4.05496 6.82439 33.375
RightArm  10.4611 -3.43262 40.266
RightForeArm  126.186 80.3782 107.036
RightHand  -1.25949 7.78965 -11.4045
LeftUpLeg  -11.653 4.97184 15.4761
LeftLeg  8.36488 3.91717 3.75383
LeftFoot  -5.52749 0.70973 -13.2194
LeftToes  1.24767e-006 1.47042e-008 1.32732e-009
609
root  5.22351 38.8117 23.4433 4.64197 -56.3241 -0.318909
RightUpLeg  -10.8359 -3.27522 -4.13112
RightLeg  26.1191 -8.15864 -4.55246
RightFoot  -17.3964 -0.00606176 2.11023
RightToes  -2.08645e-008 3.77894e-005 6.81332e-007
Spine  5.10766 2.38881 2.35161
Spine1  3.40064 2.35247 0.466736
HEad  -30.7185 29.5687 -16.8075
LeftShoulder1  7.311 -13.0861 -37.9641
LeftArm  -4.467 8.57522 -25.6174
LeftForeArm  146.779 -79.0736 -124.402
LeftHand  -0.728737 1.19642 20.1175
RightShoulder  4.08552 6.83472 33.6302
RightArm  11.3358 -8.04697 37.9521
RightForeArm  134.007 79.9308 114.409
RightHand  -1.21857 8.08063 -10.8258
LeftUpLeg  -11.649 6.08955 15.3064
LeftLeg  6.19986 2.66037 3.52037
LeftFoot  -6.866 0.540363 -12.8153
LeftToes  1.24767e-006 1.47042e-008 1.32732e-009
